<svg id="레이어_1" data-name="레이어 1" xmlns="http://www.w3.org/2000/svg" viewBox="0 0 718.57 733.54"><defs><style>.cls-1{fill:#e94335;}.cls-2{fill:#34a753;}.cls-3{fill:#4285f3;}.cls-4{fill:#fabb05;}</style></defs><title>GOOGLE_LOGO</title><path class="cls-1" d="M438,376a300.14,300.14,0,0,1,31.17-51.58c49.6-67.21,114.11-113.78,194.59-136.47C755,162.17,843.89,169.53,929.23,212c28.49,14.18,54.1,32.65,77.76,53.9,2.8,2.51,2.88,3.75.17,6.44Q957.71,321.5,908.55,371c-2.66,2.68-4,2.5-6.68.1-30.48-27.64-66.24-44.42-107-49.63-64.73-8.27-122,9.38-171.11,52.29-29.18,25.47-50,56.84-62.88,93.39-.39,1.1-.91,2.14-1.38,3.2Z" transform="translate(-398.43 -173.01)"/><path class="cls-2" d="M559.5,609.89c9.21,25.93,21.85,50,39.6,71.12,39.2,46.66,88.69,74.34,149.84,79.07,49.5,3.83,96-6.27,138.16-33.44a18.15,18.15,0,0,1,1.77-.87q40,31,79.93,62.07c12.85,10,25.62,20.07,38.43,30.11-20.85,19.91-44.46,35.93-70,49.12-39.77,20.53-82.13,32.25-126.54,37-50,5.38-99.31,2.06-147.74-12.05A367.37,367.37,0,0,1,439.87,708.58c-.76-1.46-1.36-3-2-4.52.69-.47,1.39-.91,2.05-1.42Q499.7,656.28,559.5,609.89Z" transform="translate(-398.43 -173.01)"/><path class="cls-3" d="M1007.23,818c-12.81-10-25.58-20.12-38.43-30.11q-39.93-31.08-79.93-62.07c14.9-10.77,28.74-22.63,40.12-37.22a170.58,170.58,0,0,0,32.32-68.47c1-4.39-.17-5-4.11-5q-92.7.14-185.4.06c-6.8,0-6.8,0-6.8-7,0-43.14,0-86.29-.08-129.43,0-4.05.51-5.71,5.28-5.7q167.41.24,334.83,0c4.85,0,5.57,1.91,6.2,5.95,11.89,75.57,5.89,149.34-22.54,220.7a320.87,320.87,0,0,1-79.88,117A18.54,18.54,0,0,1,1007.23,818Z" transform="translate(-398.43 -173.01)"/><path class="cls-4" d="M559.5,609.89q-59.81,46.38-119.62,92.75c-.66.51-1.36,1-2.05,1.42A348.56,348.56,0,0,1,403,596.9Q385.3,483,436,379.37c.58-1.18,1.31-2.28,2-3.41L559.53,470.3c-5.27,17.53-9.34,35.26-10.79,53.6-2.15,27.22,1.24,53.71,9.12,79.73C558.49,605.69,559,607.8,559.5,609.89Z" transform="translate(-398.43 -173.01)"/></svg>