<svg id="레이어_1" data-name="레이어 1" xmlns="http://www.w3.org/2000/svg" viewBox="0 0 896.8 896.8"><defs><style>.cls-1{fill:#ffe812;}.cls-2{fill:#010000;}.cls-3{fill:#fde712;}.cls-4{fill:#fee712;}.cls-5{fill:#fee812;}.cls-6{fill:#040300;}</style></defs><title>kakao_login</title><circle class="cls-1" cx="448.4" cy="448.4" r="448.4"/><path class="cls-2" d="M956,744.12c-14.75-.38-29.48-1-44.1-3.22a7.75,7.75,0,0,0-6.08,1.42q-38.22,27-77.1,53.12c-11.38,7.62-22.78,15.23-34.67,22.07-2,1.13-4,2.18-6.05,3.19a12,12,0,0,1-4.93,1.27c-3.89.16-6.13-1.67-6.66-5.5a12.37,12.37,0,0,1,.44-4.8c3.25-12.71,6.86-25.32,10.47-37.93,5.9-20.65,11.9-41.28,17.85-61.92a5.51,5.51,0,0,1,.23-.82c.77-1.5,0-2.14-1.29-2.76a252.18,252.18,0,0,1-26.33-14.86c-26.13-16.72-49.09-37-67.73-61.86-16.15-21.57-28-45.25-34.57-71.44a182.64,182.64,0,0,1-5.28-55.77c1.78-30.07,10.76-58,25.87-84,15.38-26.44,35.68-48.54,59.69-67.32,28.25-22.1,59.78-38,93.8-49.13A345.88,345.88,0,0,1,911,290a363.2,363.2,0,0,1,59-3.19c41.93,1.21,82.56,9,121.55,24.66,30.06,12.08,57.77,28.18,82.34,49.41,25,21.61,45.33,46.87,59.13,77.09a187.16,187.16,0,0,1,15.6,54.36,180.85,180.85,0,0,1-7,78.39,204.59,204.59,0,0,1-37.19,67.92c-21.58,26.46-47.79,47.31-77.55,63.86a326.86,326.86,0,0,1-87.52,33,336.12,336.12,0,0,1-40.81,6.6c-7.1.71-14.2,1.38-21.34,1.63S963.09,744.24,956,744.12Zm147-208a6.08,6.08,0,0,1,2.45,2.48q17.82,23.58,35.6,47.18a33,33,0,0,0,2.84,3.57c4.6,4.6,10.14,6.38,16.45,4.65,6.11-1.68,10.3-5.57,11.9-11.88,1.4-5.54.16-10.46-3.3-15q-19.6-25.8-39.07-51.7c-1.92-2.54-1.75-2,.32-4.08q14.21-14.27,28.47-28.47l7.47-7.48a13,13,0,0,0,3.81-11.2,16.51,16.51,0,0,0-7.89-12.3,14.61,14.61,0,0,0-18.51,2c-14.25,14.55-28.77,28.84-43.18,43.24-.71.7-1.44,1.38-2.24,2.16a4.72,4.72,0,0,1-.39-2.74q0-15.29,0-30.56a32.51,32.51,0,0,0-.35-4.83c-1.85-12.26-16.6-18.24-26.43-10.69a16.69,16.69,0,0,0-6.77,14.08q0,56.4,0,112.81c0,.66,0,1.33,0,2a16.71,16.71,0,0,0,32.56,4.25,21.47,21.47,0,0,0,.94-6.75q0-16.42,0-32.84c0-1-.17-2.06.71-2.94C1100.05,539.38,1101.55,537.67,1103,536.09ZM963.24,580.56a39,39,0,0,0-2.8-13.18q-15.37-40.53-30.78-81.05c-2.93-7.73-5.7-15.53-8.86-23.17-3.73-9-10.41-14.81-20.26-15.91s-20.15,5.91-24,15.93l-37,97.3c-1.79,4.71-3.83,9.33-4.78,14.32-.64,3.38-1.11,6.75-.33,10.19a10.56,10.56,0,0,0,6.57,8,24.32,24.32,0,0,0,10.86,2c8.67-.59,11.88-3.67,13.9-9.62s4.47-11.72,6.63-17.61a2.39,2.39,0,0,1,2.69-1.83q23.57.08,47.12,0a2.39,2.39,0,0,1,2.68,1.84c2.35,6.43,4.9,12.78,7.28,19.2a11.14,11.14,0,0,0,7.65,7.07c5.71,1.74,11.26,1.08,16.72-1.15a10.19,10.19,0,0,0,5.94-6.53A18.93,18.93,0,0,0,963.24,580.56ZM816.4,531.18q0-24.12,0-48.26c0-3.41-.31-3.13,3-3.13,7.9,0,15.81.13,23.7-.06,6.58-.15,11.43-3.44,14.24-9.34s2.1-11.7-1.84-16.93c-3.39-4.48-8-6.4-13.66-6.39q-37,.06-74,0c-3.91,0-7.81-.09-11.71,0a16.28,16.28,0,0,0-13.91,23.75c3,5.68,7.78,8.79,14.26,8.88,8.09.11,16.18,0,24.27.05,2.18,0,2.21,0,2.22,2.19,0,3.33,0,6.66,0,10,0,28.94.12,57.88-.06,86.81a16.75,16.75,0,0,0,33.49-.21C816.26,562.78,816.39,547,816.4,531.18Zm155.54-10.82v55.09a22,22,0,0,0,.54,5.95,15.73,15.73,0,0,0,15.35,11.38c18,0,36,0,54,0a16.88,16.88,0,0,0,4.49-.67,15.46,15.46,0,0,0,11.33-13.27c.69-5.72-2.54-11.63-8-14.66a18.18,18.18,0,0,0-9.06-2.13q-16.12,0-32.25,0c-2.2,0-2.21,0-2.25-2.16,0-.57,0-1.14,0-1.71q0-45.68,0-91.35c0-1.23,0-2.47,0-3.71a16.8,16.8,0,0,0-14.79-16,17.07,17.07,0,0,0-18.58,11.86,21.66,21.66,0,0,0-.7,6.5Q971.93,493,971.94,520.36Z" transform="translate(-511.6 -91.6)"/><path class="cls-3" d="M1103,536.09c-1.46,1.58-3,3.29-4.56,4.9-.88.88-.71,1.92-.71,2.94q0,16.41,0,32.84a21.47,21.47,0,0,1-.94,6.75,16.71,16.71,0,0,1-32.56-4.25c0-.66,0-1.33,0-2q0-56.4,0-112.81a16.69,16.69,0,0,1,6.77-14.08c9.83-7.55,24.58-1.57,26.43,10.69a32.51,32.51,0,0,1,.35,4.83q0,15.29,0,30.56a4.72,4.72,0,0,0,.39,2.74c.8-.78,1.53-1.46,2.24-2.16,14.41-14.4,28.93-28.69,43.18-43.24a14.61,14.61,0,0,1,18.51-2,16.51,16.51,0,0,1,7.89,12.3,13,13,0,0,1-3.81,11.2l-7.47,7.48q-14.24,14.22-28.47,28.47c-2.07,2.07-2.24,1.54-.32,4.08q19.51,25.86,39.07,51.7c3.46,4.56,4.7,9.48,3.3,15-1.6,6.31-5.79,10.2-11.9,11.88-6.31,1.73-11.85-.05-16.45-4.65a33,33,0,0,1-2.84-3.57q-17.8-23.58-35.6-47.18A6.08,6.08,0,0,0,1103,536.09Z" transform="translate(-511.6 -91.6)"/><path class="cls-4" d="M963.24,580.56a18.93,18.93,0,0,1-.69,5.79,10.19,10.19,0,0,1-5.94,6.53c-5.46,2.23-11,2.89-16.72,1.15a11.14,11.14,0,0,1-7.65-7.07c-2.38-6.42-4.93-12.77-7.28-19.2a2.39,2.39,0,0,0-2.68-1.84q-23.56.06-47.12,0a2.39,2.39,0,0,0-2.69,1.83c-2.16,5.89-4.61,11.68-6.63,17.61s-5.23,9-13.9,9.62a24.32,24.32,0,0,1-10.86-2,10.56,10.56,0,0,1-6.57-8c-.78-3.44-.31-6.81.33-10.19.95-5,3-9.61,4.78-14.32l37-97.3c3.81-10,14-17,24-15.93s16.53,6.89,20.26,15.91c3.16,7.64,5.93,15.44,8.86,23.17q15.39,40.53,30.78,81.05A39,39,0,0,1,963.24,580.56Zm-47.86-44.41L899,489.53c-5.91,15.46-11.51,30.92-16.85,46.62Z" transform="translate(-511.6 -91.6)"/><path class="cls-5" d="M816.39,531.18c0,15.8-.13,31.6.06,47.4a16.75,16.75,0,0,1-33.49.21c.18-28.93.06-57.87.06-86.81,0-3.33,0-6.66,0-10,0-2.15,0-2.19-2.22-2.19-8.09,0-16.18.06-24.27-.05-6.48-.09-11.28-3.2-14.26-8.88a16.28,16.28,0,0,1,13.91-23.75c3.9-.12,7.8,0,11.71,0q37,0,74,0c5.61,0,10.27,1.91,13.66,6.39,3.94,5.23,4.67,11,1.84,16.93s-7.66,9.19-14.24,9.34c-7.89.19-15.8,0-23.7.06-3.31,0-3-.28-3,3.13Q816.39,507.05,816.39,531.18Z" transform="translate(-511.6 -91.6)"/><path class="cls-4" d="M971.94,520.36q0-27.41,0-54.81a21.66,21.66,0,0,1,.7-6.5,17.07,17.07,0,0,1,18.58-11.86,16.8,16.8,0,0,1,14.79,16c.06,1.24,0,2.48,0,3.71q0,45.67,0,91.35c0,.57,0,1.14,0,1.71,0,2.12.05,2.16,2.25,2.16q16.13,0,32.25,0a18.18,18.18,0,0,1,9.06,2.13c5.45,3,8.68,8.94,8,14.66a15.46,15.46,0,0,1-11.33,13.27,16.88,16.88,0,0,1-4.49.67c-18,0-36,0-54,0a15.73,15.73,0,0,1-15.35-11.38,22,22,0,0,1-.54-5.95Z" transform="translate(-511.6 -91.6)"/><path class="cls-6" d="M915.38,536.15H882.13c5.34-15.7,10.94-31.16,16.85-46.62Z" transform="translate(-511.6 -91.6)"/></svg>